<?xml version="1.0" encoding="utf-8"?>
<!-- Generator: Adobe Illustrator 23.0.3, SVG Export Plug-In . SVG Version: 6.00 Build 0)  -->
<svg version="1.1" id="Icons" xmlns="http://www.w3.org/2000/svg" xmlns:xlink="http://www.w3.org/1999/xlink" x="0px" y="0px"
	 viewBox="0 0 32 32" style="enable-background:new 0 0 32 32;" xml:space="preserve">
<style type="text/css">
	.st0{fill:none;stroke:#000000;stroke-width:2;stroke-linecap:round;stroke-linejoin:round;stroke-miterlimit:10;}
	
		.st1{fill:none;stroke:#000000;stroke-width:2;stroke-linecap:round;stroke-linejoin:round;stroke-miterlimit:10;stroke-dasharray:3;}
	.st2{fill:none;stroke:#000000;stroke-width:2;stroke-linejoin:round;stroke-miterlimit:10;}
	.st3{fill:none;}
</style>
<polyline class="st0" points="27,17 27,28 5,28 5,17 "/>
<line class="st0" x1="13" y1="17" x2="13" y2="28"/>
<polygon class="st0" points="28,12 4,12 7,5 25,5 "/>
<path class="st0" d="M16,18L16,18c-2.2,0-4-1.8-4-4v-2h8v2C20,16.2,18.2,18,16,18z"/>
<path class="st0" d="M8,18L8,18c-2.2,0-4-1.8-4-4v-2h8v2C12,16.2,10.2,18,8,18z"/>
<path class="st0" d="M24,18L24,18c-2.2,0-4-1.8-4-4v-2h8v2C28,16.2,26.2,18,24,18z"/>
<line class="st0" x1="10" y1="23" x2="10" y2="23"/>
<rect x="-432" y="-576" class="st3" width="536" height="680"/>
</svg>
